<svg xmlns="http://www.w3.org/2000/svg" viewBox="0 0 296.1 573.88"><defs><style>.cls-1{fill:#46e4ab;}.cls-2{fill:#3ec08e;}.cls-3{fill:#f36c82;}</style></defs><g id="Слой_2" data-name="Слой 2"><g id="Слой_1-2" data-name="Слой 1"><path class="cls-1" d="M276.1,108.88H19.8A19.8,19.8,0,0,0,0,128.58v425.3a20.09,20.09,0,0,0,20,20H93.4a20,20,0,0,0,20-20v-133a16,16,0,0,1,16-16H276.3a19.8,19.8,0,0,0,19.8-19.7V128.88A20,20,0,0,0,276.1,108.88Z"/><path class="cls-2" d="M5.3,403.28l281.5-84a13.1,13.1,0,0,0,9.3-12.5V128.88a20,20,0,0,0-20-20H14a14,14,0,0,0-14,13.9v276.6a4.1,4.1,0,0,0,4.12,4.08A3.93,3.93,0,0,0,5.3,403.28Z"/><path class="cls-1" d="M4.3,402.38l195.2-115.3a13,13,0,0,0,6.4-11.2V10.08A10,10,0,0,0,191,1.28L6.7,105.08A13.29,13.29,0,0,0,0,116.48V400a2.9,2.9,0,0,0,3,2.76A2.82,2.82,0,0,0,4.3,402.38Z"/><path class="cls-3" d="M247.8,572l-49-36.1-49,36.1a5,5,0,0,1-8-4V447.88a16,16,0,0,1,16-16h82a16,16,0,0,1,16,16V568a5,5,0,0,1-8,4Z"/></g></g></svg>