<?xml version="1.0" standalone="no"?>
<!DOCTYPE svg PUBLIC "-//W3C//DTD SVG 20010904//EN"
 "http://www.w3.org/TR/2001/REC-SVG-20010904/DTD/svg10.dtd">
<svg version="1.0" xmlns="http://www.w3.org/2000/svg"
 width="1024.000000pt" height="1024.000000pt" viewBox="0 0 1024.000000 1024.000000"
 preserveAspectRatio="xMidYMid meet">
<metadata>
Created by potrace 1.16, written by Peter Selinger 2001-2019
</metadata>
<g transform="translate(0.000000,1024.000000) scale(0.100000,-0.100000)"
fill="#bf0c34" stroke="none">
<path d="M2530 10234 c-504 -29 -838 -83 -1098 -180 -422 -157 -809 -476
-1059 -872 -228 -361 -328 -751 -363 -1417 -13 -256 -13 -5034 0 -5290 30
-572 108 -936 267 -1248 242 -474 669 -859 1155 -1041 209 -78 534 -140 883
-168 234 -19 5376 -19 5610 0 349 28 673 90 883 168 422 157 809 476 1059 872
228 361 326 745 363 1412 14 251 14 5049 0 5300 -41 755 -164 1161 -476 1576
-74 98 -234 266 -336 350 -171 143 -411 284 -610 358 -200 74 -512 135 -858
167 -104 10 -740 13 -2750 14 -1438 1 -2640 0 -2670 -1z m5032 -1341 c63 -29
134 -96 166 -158 l27 -50 3 -957 2 -958 -330 0 -330 0 0 745 0 745 -1980 0
-1980 0 0 -3140 0 -3140 1980 0 1980 0 0 745 0 745 330 0 330 0 -2 -957 -3
-958 -27 -50 c-32 -62 -103 -129 -166 -158 l-47 -22 -2395 0 -2395 0 -47 22
c-63 29 -134 96 -166 158 l-27 50 0 3565 0 3565 27 50 c26 51 94 121 139 146
73 39 18 38 2484 36 l2380 -2 47 -22z m-2723 -2610 c151 -266 277 -483 280
-483 3 0 130 218 281 485 l275 484 383 1 c211 0 381 -3 379 -7 -3 -5 -214
-376 -470 -826 l-466 -818 445 -782 c245 -430 457 -801 470 -824 l25 -43 -383
0 -383 1 -275 484 c-151 267 -277 485 -280 485 -3 0 -129 -216 -279 -481 -151
-264 -279 -483 -285 -485 -6 -2 -179 -3 -383 -2 l-372 3 464 815 c256 448 465
821 465 829 0 7 -208 378 -461 825 -254 446 -464 814 -466 819 -2 4 168 6 379
5 l382 -3 275 -482z m4081 -503 l0 -330 -910 0 -910 0 0 330 0 330 910 0 910
0 0 -330z m0 -1320 l0 -330 -910 0 -910 0 0 330 0 330 910 0 910 0 0 -330z"/>
</g>
</svg>
